# xmcd
#
# Track frame offsets:
#	150
#	13675
#	13987
#	33527
#	53857
#	64232
#	80440
#	93727
#	111565
#	125322
#	140787
#	156725
#	181782
#
# Disc length: 3437 seconds
#
# Revision: 4
# Processed by: cddbd v1.5.2PL0 Copyright (c) Steve Scherf et al.
# Submitted via: EasyCDDAExtractor 16.0.1.1
#
DISCID=bf0d6b0d
DTITLE=Patsy Cline - Patsy Cline Duets Volume 1
DYEAR=19
DGENRE=Country
TTITLE0=Patsy Cline and Bob Carlisle - That Wonderful Someone
TTITLE1=Patsy Cline - Patsy Cline - Intro (Duets vol 1)
TTITLE2=Patsy Cline and John Berry - There He Goes
TTITLE3=Patsy Cline and Beth Nielsen Chapman - If I Could Only Stay Asleep
TTITLE4=Patsy Cline and Glen Campbell - Too Many Secrets
TTITLE5=Patsy Cline and Mila Mason - Crazy Dreams
TTITLE6=Patsy Cline and Willie Nelson - Life's Railway To Heaven
TTITLE7=Patsy Cline and Waylon Jennings - Just Out Of Reach
TTITLE8=Patsy Cline and Crystal Gayle - I Can't Forget You
TTITLE9=Patsy Cline and Michelle Wright - Walkin' After Midnight
TTITLE10=Patsy Cline - Hungry For Love (extended version)
TTITLE11=Patsy Cline - How Can I Face Tomorrow (extended version)
TTITLE12=Patsy Cline - Data Track - Data Track
EXTD=
EXTT0=
EXTT1=
EXTT2=
EXTT3=
EXTT4=
EXTT5=
EXTT6=
EXTT7=
EXTT8=
EXTT9=
EXTT10=
EXTT11=
EXTT12=
PLAYORDER=
